<?xml version="1.0" encoding="UTF-8" standalone="no"?>
<svg width="395px" height="83px" viewBox="0 0 395 83" version="1.1" xmlns="http://www.w3.org/2000/svg" xmlns:xlink="http://www.w3.org/1999/xlink">
    <!-- Generator: Sketch 47.1 (45422) - http://www.bohemiancoding.com/sketch -->
    <title>logo</title>
    <desc>Created with Sketch.</desc>
    <defs></defs>
    <g id="Page-1" stroke="none" stroke-width="1" fill="none" fill-rule="evenodd">
        <g id="logo" fill="#C8102E">
            <path d="M279,19.9 C279,19.9 271.8,20.9 274.2,30.5 C276.6,40.1 284.8,69.7 284.8,69.7 C284.8,69.7 287.2,79.3 294.8,76.9 C302.4,74.5 299.3,67.6 299.3,67.6 L287.3,23.6 C287.3,23.6 284.9,20.5 283.2,19.8 C281.4,19.2 279,19.9 279,19.9 L279,19.9 Z M286,14.9 C304.6,14.9 319.7,30 319.7,48.6 C319.7,67.2 304.6,82.3 286,82.3 C267.4,82.3 252.3,67.2 252.3,48.6 C252.4,30 267.5,14.9 286,14.9 Z" id="Shape"></path>
            <path d="M64.6,41.6 L97.2,22.4 C97.2,22.4 85.2,2.8 58.7,1.1 C32.2,-0.6 1,9.3 0.6,44.7 C0.3,80.1 49.4,82.8 49.4,82.8 C49.4,82.8 69,83.1 80.7,75.6 C92.4,68 94.8,63.9 94.8,63.9 L92.7,59.4 C92.7,59.4 85.8,73.8 64.2,74.5 C42.6,75.2 30.5,53.5 31.9,39.1 C33.3,24.7 42.9,13.7 57,9.6 C71.1,5.5 81.4,13.4 81.4,13.4 L64.6,41.6 Z" id="Shape"></path>
            <path d="M134.6,48 C141.5,48 147,53.6 147,60.4 C147,67.3 141.4,72.8 134.6,72.8 C127.7,72.8 122.2,67.2 122.2,60.4 C122.2,53.6 127.7,48 134.6,48 L134.6,48 Z M107.2,26.5 L136.4,15.5 C136.4,15.5 142.9,12.4 152.5,17.2 C162.1,22 163.1,30.6 163.1,30.6 L176.2,80.8 L153.2,81.1 L149.8,69.8 C149.8,69.8 141.6,82.2 122,82.2 C102.4,82.2 97.6,65.4 97.6,58.8 C97.6,52.3 105.8,39.6 120.6,39.2 C135.4,38.9 142.9,45 142.9,45 L137.7,27.1 L107.2,26.5 Z" id="Shape"></path>
            <path d="M169,26.8 L183.8,26.8 L184.1,80 L208.5,80.3 L208.5,33 C208.5,33 208.5,27.2 214.3,27.2 C220.1,27.2 219.8,32 219.8,32 L220.5,80.8 L244.9,80.8 L244.6,26.9 C244.6,26.9 243.9,17.3 238.1,15.9 C232.3,14.5 230.9,14.5 224.4,17.6 C217.9,20.7 208.6,24.8 208.6,24.8 C208.6,24.8 206.9,14.8 198,14.8 C189,14.8 169,26.8 169,26.8" id="Shape"></path>
            <path d="M318.9,27 L333.7,27 L334,80.2 L358.4,80.5 L358.4,33.1 C358.4,33.1 358.4,27.3 364.2,27.3 C370,27.3 369.7,32.1 369.7,32.1 L370.4,80.9 L394.8,80.9 L394.5,27 C394.5,27 393.8,17.4 388,16 C382.2,14.6 380.8,14.6 374.3,17.7 C367.8,20.8 358.5,24.9 358.5,24.9 C358.5,24.9 356.8,14.9 347.9,14.9 C338.8,15 318.9,27 318.9,27" id="Shape"></path>
        </g>
    </g>
</svg>